<?xml version="1.0" encoding="UTF-8"?>
<svg id="Layer_2" data-name="Layer 2" xmlns="http://www.w3.org/2000/svg" viewBox="0 0 560 560">
  <defs>
    <style>
      .cls-1 {
        fill: #fff;
      }
    </style>
  </defs>
  <g id="Layer_1-2" data-name="Layer 1">
    <rect class="cls-1" width="560" height="560"/>
    <path d="m357.64,510.16c-1.89,0-5.41,0-7.82-2.44-1.58-1.6-2.34-3.8-2.31-6.74.05-5.95.01-12.03-.02-17.9-.05-7.77-.1-15.8.06-23.73.04-1.86-.26-2.42-.29-2.48t0,0s-.53-.23-2.06-.23c-.17,0-.33,0-.51,0-10.38.3-20.91.4-31.1.49-3.13.03-6.27.06-9.41.09h-.22c-1.08,0-2.13-.09-3.25-.18-.56-.05-1.16-.1-1.83-.14l-3.73-.25v-27.78c0-2.37-.03-4.74-.05-7.1-.06-5.56-.12-11.31.15-17,.05-1.07-.06-1.59-.12-1.8-.21-.07-.76-.2-1.96-.2h-.2c-3.69.04-7.38.05-11.07.05-2.25,0-11.24-.02-13.48-.02-4.36,0-10.11.01-15.86.13h-.45c-2.05,0-5.03-.25-7.16-2.44-2.15-2.21-2.34-5.19-2.28-7.55.2-6.91.28-13.95.36-20.77.08-7.38.17-15,.41-22.52.02-.74-.02-1.2-.06-1.47-.22-.04-.56-.07-1.08-.07h-.24c-5.85.11-11.79.13-17.54.15-7.5.03-15.26.06-22.86.27-.2,0-.4,0-.58,0-1.95,0-4.79-.24-6.89-2.35-2.13-2.13-2.41-5.03-2.4-7.59.12-52,.17-104.88.22-156.01.02-21.66.04-43.32.07-64.98.02-14.58.08-29.15.14-43.73.03-6.68.09-24.04.09-24.04h19.39s-.03,13.03-.03,17.54c-.02,12.17-.04,24.75-.13,37.13,0,.04,0,.09,0,.13.25.02.59.03,1.07.03,0,0,3.35,0,4.98,0,3.3,0,6.6,0,9.9.02,3.29,0,6.59.02,9.88.02,6.64,0,12-.04,16.87-.11h.38c2,0,4.9.24,6.97,2.35,2.1,2.13,2.29,5.13,2.25,7.19-.13,7.34-.14,14.81-.14,22.05,0,7.14,0,14.53-.14,21.8,0,.27,0,.49,0,.67.11,0,.24,0,.38,0h.3c5.07-.1,10.58-.15,16.86-.15,5.92,0,11.84.04,17.76.08l5.35.04c1.87.01,3.62.24,5.47.48.8.1,1.63.21,2.49.3l3.59.37v3.61c0,4.52.02,9,.04,13.46.05,11.55.11,22.46-.19,33.63-.02.77.02,1.26.06,1.55.28.04.73.07,1.44.07.23,0,.46,0,.7,0,5.68-.11,11.36-.13,15.68-.13,2.12,0,10.58.01,12.7.01,5.11,0,9.01-.02,12.66-.08h.29c1.89,0,4.63.24,6.67,2.3,2.26,2.29,2.22,5.51,2.21,6.58-.04,3.5.02,7.08.07,10.55.04,2.73.09,5.47.09,8.2,0,80.88,0,160.04-.04,239.23,0,3.39-.11,6.81-.22,10.11-.13,3.96-.26,8.05-.2,12.03.05,2.97-.7,5.2-2.29,6.82-2.13,2.16-5,2.46-7.79,2.46h-.01Zm-41.83-74.72c.19.01.43.02.75.02h.41c6.66-.15,12.22-.21,17.49-.21,4.14,0,7.98.04,11.73.13h.37c.4,0,.68-.01.89-.03.03-.22.05-.54.05-.98-.1-67.12-.09-134.2,0-199.38,0-.99-.11-1.49-.17-1.7-.2-.06-.65-.15-1.52-.15h-.32c-5,.11-10.09.17-15.11.17-4.48,0-9.03-.04-13.53-.13h-.22c-.31,0-.54.01-.71.03-.04.27-.07.69-.06,1.32.12,25.56.11,51.54.1,76.67,0,7.67,0,27.02,0,27.02h-.07c0,6.61,0,13.22.01,19.83.02,25.05.03,50.95-.12,76.43,0,.42.01.74.04.97Zm-51.95-255.98c-.07.93-.07,2.4-.07,3.75-.03,47.27-.05,94.54-.07,141.81,0,11.91,0,23.81,0,35.72v19.52c0,.35,0,.7-.02,1.05,0,.03,0,.06,0,.09,4.94-.02,9.87-.03,14.84-.03h16.55s.01-53.95.01-53.95c0-48.2.02-98.04.08-147.07,0-.44-.03-.75-.06-.95-.18-.03-.45-.05-.85-.05h-.11c-4.87.05-10.11.07-16,.07h-.04c-3.4,0-6.81,0-10.21-.02h-1.38c-.57,0-1.83,0-2.69.06Zm-52.04,148.5c.2.04.57.09,1.18.09h.31c4.26-.11,8.75-.17,13.74-.17,5.73,0,11.3.07,16.01.14,0,0,.29,0,.35,0,0-.17.01-.38.01-.63-.11-63.31-.11-129.19,0-201.43,0-.44-.02-.75-.04-.98-.08,0-.18,0-.3,0-3.57,0-7.12.01-10.67.01-6.7,0-13.4-.01-20.09-.04h0c-.17,0-.32,0-.44.01-.02.19-.03.43-.02.73.14,25.83.12,52.09.11,77.48,0,7.56,0,26.67,0,26.67h-.21c0,6.59,0,13.17,0,19.76.01,25.04.02,50.93-.09,76.39,0,1.11.08,1.68.15,1.95Z"/>
    <path d="m207.7,53.84c-.04,16.88-.03,33.76-.15,50.64-.03,3.87,2.21,4.2,5.18,4.19,13.86-.04,27.72.13,41.58-.09,4.21-.07,5.62,1.16,5.54,5.47-.27,14.62-.02,29.24-.28,43.86-.07,3.8.9,4.82,4.76,4.75,13.28-.26,26.58-.11,39.87-.03,2.41.02,4.81.47,7.57.75,0,15.97.26,31.48-.15,46.98-.14,5.29,1.86,5.8,6.29,5.72,13.66-.27,27.34.01,41.01-.19,3.71-.05,5.15,1.17,5.11,4.83-.07,6.26.16,12.53.16,18.79,0,79.74,0,159.48-.04,239.23,0,7.4-.54,14.81-.43,22.2.07,4.63-2.35,5.21-6.08,5.21-3.69,0-6.19-.5-6.14-5.14.12-13.86-.24-27.72.04-41.58.11-5.38-1.9-6.93-6.97-6.79-13.47.39-26.95.43-40.43.58-1.47.02-2.94-.18-4.98-.32,0-8.21,0-16.13,0-24.04,0-7.97-.27-15.96.1-23.92.23-4.95-1.85-6.24-6.33-6.19-13.48.15-26.96-.1-40.44.16-4.55.09-5.94-1.4-5.81-5.88.41-14.42.31-28.86.76-43.27.14-4.33-1.25-5.73-5.44-5.66-13.48.24-26.96.05-40.43.42-4.67.13-5.77-1.56-5.76-5.92.17-73.67.2-147.33.29-221,.03-21.26.14-42.52.21-63.78h11.39Zm104.26,280.37s-.04,0-.07,0c0,33.41.09,66.82-.11,100.23-.03,4.36,1.57,5.09,5.29,5.01,9.68-.21,19.37-.3,29.05-.08,3.86.09,5.4-.87,5.39-5.02-.1-66.46-.1-132.91,0-199.37,0-4.59-1.8-5.94-6.1-5.85-9.49.21-18.99.22-28.48.03-4.03-.08-5.09,1.39-5.07,5.36.16,33.22.09,66.45.09,99.67Zm-103.98-108.36c-.07,0-.14,0-.22,0,0,33.38.07,66.76-.08,100.13-.02,4.37,1.14,6.18,5.74,6.06,9.86-.25,19.72-.17,29.59-.02,3.45.05,4.43-1.05,4.43-4.64-.12-67.14-.1-134.28,0-201.41,0-3.39-.91-5-4.36-4.99-10.24.02-20.48.01-30.73-.02-3.26-.01-4.5,1.1-4.48,4.76.18,33.38.1,66.75.1,100.13Zm90.74,159.51c.19-1.57.39-2.49.39-3.42.02-67.2,0-134.4.1-201.6,0-3.8-1.55-5.04-5.05-5-8.73.09-17.46.08-26.2.05-8.14-.03-8.15-.06-8.16,7.8-.03,47.27-.05,94.54-.06,141.81,0,18.41,0,36.83.01,55.24,0,2.43-.66,5.16,3.32,5.14,11.73-.06,23.46-.02,35.66-.02Z"/>
  </g>
</svg>