<?xml version="1.0" encoding="UTF-8"?>
<svg id="Layer_2" data-name="Layer 2" xmlns="http://www.w3.org/2000/svg" viewBox="0 0 70.89 174.36">
  <defs>
    <style>
      .cls-1 {
        fill: #fff;
      }
    </style>
  </defs>
  <g id="Layer_1-2" data-name="Layer 1">
    <path class="cls-1" d="m5,0c-.02,5.18,0,10.36-.06,15.54-.02,1.62.92,1.77,2.17,1.77,5.66-.02,11.33.08,16.99-.05,2.13-.05,2.91.48,2.85,2.77-.18,5.9,0,11.81-.13,17.71-.04,1.76.3,2.32,2.2,2.27,5.5-.15,11.01-.05,16.51-.02,1.02,0,2.03.19,3.23.3,0,6.77.08,13.36-.05,19.95-.04,1.89.6,2.27,2.33,2.24,5.74-.1,11.49.06,17.23-.11,2.14-.06,2.62.85,2.61,2.64-.02,3.19.01,6.38.01,9.57,0,29.43,0,58.87-.03,88.3,0,3.83-.15,7.65-.23,11.48h-5.27c.02-3.5.03-7.01.06-10.51.02-1.92-1.33-1.89-2.64-1.88-5.83.06-11.65.13-17.48.19-.47,0-.95-.04-1.74-.08-.05-.94-.14-1.85-.14-2.76,0-5.67-.1-11.34.1-17,.09-2.51-.85-3.14-3.17-3.09-5.5.12-11.02-.03-16.52.09-1.94.04-2.48-.61-2.43-2.49.17-6.06.13-12.13.32-18.19.06-1.83-.55-2.4-2.3-2.37-5.67.1-11.33.02-17,.18C.44,116.52,0,115.79,0,113.97c.07-30.97.09-61.94.12-92.9,0-7.02.06-14.04.09-21.06h4.79Zm43.83,112.33s-.02,0-.03,0c0,13.97.04,27.93-.05,41.9-.01,1.78.58,2.18,2.19,2.14,3.99-.1,7.99-.2,11.97-.02,2.1.09,2.55-.64,2.54-2.57-.06-15.65-.03-31.29-.03-46.94,0-12.05-.04-24.11.04-36.16.01-2.12-.71-2.81-2.78-2.74-3.91.13-7.82.1-11.73.02-1.66-.03-2.17.52-2.16,2.22.07,14.05.04,28.1.04,42.14Zm-27.15-45.23c0-14.19-.03-28.39.04-42.58,0-1.69-.72-2.06-2.14-2.05-3.43.02-6.86,0-10.29,0-4.1,0-4.14,0-4.15,3.96-.05,27.51-.08,55.02-.15,82.52,0,1.67.58,2.27,2.23,2.25,4.23-.07,8.45-.04,12.68,0,1.27.01,1.83-.3,1.82-1.76-.06-14.11-.03-28.23-.04-42.34Zm21.59,66.53c.08-.66.16-1.05.16-1.44,0-28.25,0-56.51.04-84.76,0-1.59-.65-2.12-2.12-2.1-3.67.04-7.34.04-11.01.02-3.43-.01-3.43-.03-3.43,3.28,0,19.23-.02,38.47-.03,57.7,0,8.38,0,16.76,0,25.14,0,1.02-.28,2.17,1.39,2.16,4.93-.02,9.86,0,14.99,0Z"/>
  </g>
</svg>